<svg width="1200" height="700" viewBox="0 0 1200 700" fill="none" xmlns="http://www.w3.org/2000/svg">
  <defs>
    <linearGradient id="aboutBg" x1="90" y1="60" x2="1110" y2="640" gradientUnits="userSpaceOnUse">
      <stop stop-color="#FFF4E4"/>
      <stop offset="1" stop-color="#FFD8AE"/>
    </linearGradient>
  </defs>
  <rect x="20" y="20" width="1160" height="660" rx="34" fill="url(#aboutBg)" stroke="#1A1A1A" stroke-width="8"/>
  <rect x="98" y="100" width="500" height="500" rx="30" fill="#FFFFFF" stroke="#1A1A1A" stroke-width="6"/>
  <circle cx="224" cy="234" r="58" fill="#FFC57C" stroke="#1A1A1A" stroke-width="5"/>
  <circle cx="350" cy="234" r="58" fill="#FFC57C" stroke="#1A1A1A" stroke-width="5"/>
  <circle cx="476" cy="234" r="58" fill="#FFC57C" stroke="#1A1A1A" stroke-width="5"/>
  <rect x="156" y="346" width="384" height="26" rx="10" fill="#EDEDED"/>
  <rect x="156" y="392" width="320" height="26" rx="10" fill="#EDEDED"/>
  <rect x="156" y="438" width="268" height="26" rx="10" fill="#EDEDED"/>
  <rect x="648" y="126" width="460" height="220" rx="28" fill="#FF8A00" stroke="#1A1A1A" stroke-width="6"/>
  <text x="688" y="206" font-family="Arial" font-size="48" font-weight="800" fill="#1A1A1A">OUR STORY</text>
  <text x="688" y="266" font-family="Arial" font-size="34" font-weight="700" fill="#1A1A1A">Built for event lovers</text>
  <rect x="648" y="384" width="460" height="216" rx="28" fill="#FFF9EF" stroke="#1A1A1A" stroke-width="6"/>
  <rect x="694" y="442" width="368" height="26" rx="10" fill="#EDEDED"/>
  <rect x="694" y="486" width="304" height="26" rx="10" fill="#EDEDED"/>
  <rect x="694" y="530" width="236" height="26" rx="10" fill="#EDEDED"/>
</svg>
