<svg width="1200" height="700" viewBox="0 0 1200 700" fill="none" xmlns="http://www.w3.org/2000/svg">
  <defs>
    <linearGradient id="contactBg" x1="100" y1="70" x2="1100" y2="640" gradientUnits="userSpaceOnUse">
      <stop stop-color="#FFF4E5"/>
      <stop offset="1" stop-color="#FFD7A8"/>
    </linearGradient>
  </defs>
  <rect x="20" y="20" width="1160" height="660" rx="34" fill="url(#contactBg)" stroke="#1B1B1B" stroke-width="8"/>
  <rect x="110" y="116" width="520" height="468" rx="30" fill="#FFFFFF" stroke="#1B1B1B" stroke-width="6"/>
  <rect x="160" y="188" width="420" height="56" rx="14" fill="#F0F0F0"/>
  <rect x="160" y="266" width="200" height="56" rx="14" fill="#F0F0F0"/>
  <rect x="380" y="266" width="200" height="56" rx="14" fill="#F0F0F0"/>
  <rect x="160" y="344" width="420" height="128" rx="14" fill="#F0F0F0"/>
  <rect x="160" y="496" width="190" height="58" rx="14" fill="#FF8A00" stroke="#1B1B1B" stroke-width="4"/>
  <text x="210" y="533" font-family="Arial" font-size="24" font-weight="700" fill="#1B1B1B">SEND</text>
  <rect x="700" y="150" width="390" height="400" rx="30" fill="#1B1B1B"/>
  <rect x="730" y="184" width="330" height="332" rx="20" fill="#FFF7EE"/>
  <text x="778" y="244" font-family="Arial" font-size="32" font-weight="800" fill="#1B1B1B">SUPPORT</text>
  <rect x="778" y="276" width="236" height="22" rx="10" fill="#EDEDED"/>
  <rect x="778" y="320" width="202" height="22" rx="10" fill="#EDEDED"/>
  <rect x="778" y="364" width="258" height="22" rx="10" fill="#EDEDED"/>
  <rect x="778" y="410" width="220" height="22" rx="10" fill="#EDEDED"/>
</svg>
