<svg width="1200" height="680" viewBox="0 0 1200 680" fill="none" xmlns="http://www.w3.org/2000/svg">
  <defs>
    <linearGradient id="eventsBg" x1="70" y1="50" x2="1110" y2="620" gradientUnits="userSpaceOnUse">
      <stop stop-color="#FFF4E5"/>
      <stop offset="1" stop-color="#FFD7A7"/>
    </linearGradient>
  </defs>
  <rect x="20" y="20" width="1160" height="640" rx="34" fill="url(#eventsBg)" stroke="#1B1B1B" stroke-width="8"/>
  <rect x="90" y="116" width="320" height="470" rx="24" fill="#FFFFFF" stroke="#1B1B1B" stroke-width="6"/>
  <rect x="128" y="170" width="244" height="140" rx="18" fill="#FF8A00"/>
  <rect x="128" y="338" width="244" height="26" rx="10" fill="#EFEFEF"/>
  <rect x="128" y="382" width="208" height="26" rx="10" fill="#EFEFEF"/>
  <rect x="128" y="426" width="160" height="48" rx="12" fill="#FFE2BD" stroke="#1B1B1B" stroke-width="4"/>
  <rect x="438" y="116" width="320" height="470" rx="24" fill="#FFFFFF" stroke="#1B1B1B" stroke-width="6"/>
  <rect x="476" y="170" width="244" height="140" rx="18" fill="#FFB558"/>
  <rect x="476" y="338" width="244" height="26" rx="10" fill="#EFEFEF"/>
  <rect x="476" y="382" width="208" height="26" rx="10" fill="#EFEFEF"/>
  <rect x="476" y="426" width="160" height="48" rx="12" fill="#FFE2BD" stroke="#1B1B1B" stroke-width="4"/>
  <rect x="786" y="116" width="320" height="470" rx="24" fill="#FFFFFF" stroke="#1B1B1B" stroke-width="6"/>
  <rect x="824" y="170" width="244" height="140" rx="18" fill="#FFC978"/>
  <rect x="824" y="338" width="244" height="26" rx="10" fill="#EFEFEF"/>
  <rect x="824" y="382" width="208" height="26" rx="10" fill="#EFEFEF"/>
  <rect x="824" y="426" width="160" height="48" rx="12" fill="#FFE2BD" stroke="#1B1B1B" stroke-width="4"/>
</svg>
