<svg width="1200" height="760" viewBox="0 0 1200 760" fill="none" xmlns="http://www.w3.org/2000/svg">
  <defs>
    <linearGradient id="homeBg" x1="60" y1="40" x2="1140" y2="700" gradientUnits="userSpaceOnUse">
      <stop stop-color="#FFF4E6"/>
      <stop offset="1" stop-color="#FFD6A3"/>
    </linearGradient>
    <linearGradient id="ticketGlow" x1="420" y1="320" x2="860" y2="560" gradientUnits="userSpaceOnUse">
      <stop stop-color="#FF8A00"/>
      <stop offset="1" stop-color="#FFB347"/>
    </linearGradient>
  </defs>
  <rect x="16" y="16" width="1168" height="728" rx="34" fill="url(#homeBg)" stroke="#1B1B1B" stroke-width="8"/>
  <circle cx="230" cy="170" r="92" fill="#FFE7C8" stroke="#1B1B1B" stroke-width="6"/>
  <circle cx="990" cy="178" r="112" fill="#FFD6A3" stroke="#1B1B1B" stroke-width="6"/>
  <rect x="160" y="214" width="400" height="250" rx="24" fill="#FFFFFF" stroke="#1B1B1B" stroke-width="6"/>
  <text x="194" y="280" font-family="Arial" font-size="48" font-weight="700" fill="#1B1B1B">GRABMYSHOW</text>
  <text x="194" y="334" font-family="Arial" font-size="28" font-weight="600" fill="#4A4A4A">Discover events. Book instantly.</text>
  <rect x="194" y="370" width="166" height="50" rx="12" fill="#FF8A00" stroke="#1B1B1B" stroke-width="4"/>
  <text x="220" y="404" font-family="Arial" font-size="22" font-weight="700" fill="#1B1B1B">Explore Now</text>
  <rect x="620" y="142" width="414" height="486" rx="30" fill="#1B1B1B"/>
  <rect x="648" y="176" width="358" height="416" rx="20" fill="#FDF6ED"/>
  <rect x="684" y="224" width="286" height="172" rx="18" fill="url(#ticketGlow)" stroke="#1B1B1B" stroke-width="4"/>
  <text x="738" y="294" font-family="Arial" font-size="34" font-weight="700" fill="#1B1B1B">EVENT PASS</text>
  <text x="738" y="336" font-family="Arial" font-size="24" font-weight="600" fill="#1B1B1B">GOLD ENTRY</text>
  <rect x="684" y="428" width="286" height="52" rx="12" fill="#FFFFFF" stroke="#1B1B1B" stroke-width="4"/>
  <text x="716" y="462" font-family="Arial" font-size="23" font-weight="600" fill="#1B1B1B">Music | Sports | Cinema</text>
  <rect x="684" y="500" width="132" height="58" rx="12" fill="#FF8A00" stroke="#1B1B1B" stroke-width="4"/>
  <text x="718" y="538" font-family="Arial" font-size="23" font-weight="700" fill="#1B1B1B">Book</text>
  <rect x="176" y="522" width="314" height="132" rx="20" fill="#FFF8EF" stroke="#1B1B1B" stroke-width="6"/>
  <text x="204" y="574" font-family="Arial" font-size="30" font-weight="700" fill="#1B1B1B">2,500+</text>
  <text x="204" y="614" font-family="Arial" font-size="25" font-weight="600" fill="#434343">Events hosted monthly</text>
</svg>
