<svg width="1200" height="700" viewBox="0 0 1200 700" fill="none" xmlns="http://www.w3.org/2000/svg">
  <defs>
    <linearGradient id="companyBg" x1="120" y1="90" x2="1060" y2="620" gradientUnits="userSpaceOnUse">
      <stop stop-color="#FFF1DE"/>
      <stop offset="1" stop-color="#FFE3C0"/>
    </linearGradient>
  </defs>
  <rect x="20" y="20" width="1160" height="660" rx="34" fill="url(#companyBg)" stroke="#161616" stroke-width="8"/>
  <rect x="90" y="120" width="460" height="470" rx="26" fill="#FFFFFF" stroke="#161616" stroke-width="6"/>
  <circle cx="220" cy="220" r="52" fill="#FFCE9A" stroke="#161616" stroke-width="5"/>
  <circle cx="340" cy="220" r="52" fill="#FFCE9A" stroke="#161616" stroke-width="5"/>
  <circle cx="460" cy="220" r="52" fill="#FFCE9A" stroke="#161616" stroke-width="5"/>
  <rect x="140" y="330" width="360" height="24" rx="12" fill="#F1F1F1"/>
  <rect x="140" y="374" width="320" height="24" rx="12" fill="#F1F1F1"/>
  <rect x="140" y="418" width="280" height="24" rx="12" fill="#F1F1F1"/>
  <rect x="630" y="120" width="480" height="220" rx="26" fill="#FF8A00" stroke="#161616" stroke-width="6"/>
  <text x="670" y="200" font-family="Arial" font-size="50" font-weight="800" fill="#1B1B1B">TRUSTED BY</text>
  <text x="670" y="266" font-family="Arial" font-size="50" font-weight="800" fill="#1B1B1B">2M+ USERS</text>
  <rect x="630" y="380" width="480" height="210" rx="26" fill="#FFF7ED" stroke="#161616" stroke-width="6"/>
  <rect x="678" y="438" width="136" height="58" rx="12" fill="#FFE5C2" stroke="#161616" stroke-width="4"/>
  <rect x="834" y="438" width="136" height="58" rx="12" fill="#FFE5C2" stroke="#161616" stroke-width="4"/>
  <rect x="990" y="438" width="72" height="58" rx="12" fill="#FFE5C2" stroke="#161616" stroke-width="4"/>
  <text x="692" y="476" font-family="Arial" font-size="22" font-weight="700" fill="#1B1B1B">FAST PAY</text>
  <text x="846" y="476" font-family="Arial" font-size="22" font-weight="700" fill="#1B1B1B">SAFE PASS</text>
  <text x="1005" y="476" font-family="Arial" font-size="22" font-weight="700" fill="#1B1B1B">24x7</text>
</svg>
