<svg width="1200" height="700" viewBox="0 0 1200 700" fill="none" xmlns="http://www.w3.org/2000/svg">
  <defs>
    <linearGradient id="bookingBg" x1="120" y1="100" x2="1080" y2="630" gradientUnits="userSpaceOnUse">
      <stop stop-color="#FFF2E0"/>
      <stop offset="1" stop-color="#FFD2A3"/>
    </linearGradient>
  </defs>
  <rect x="20" y="20" width="1160" height="660" rx="34" fill="url(#bookingBg)" stroke="#171717" stroke-width="8"/>
  <rect x="96" y="96" width="560" height="508" rx="28" fill="#FFFFFF" stroke="#171717" stroke-width="6"/>
  <text x="138" y="170" font-family="Arial" font-size="42" font-weight="800" fill="#171717">BOOKING CHECKOUT</text>
  <rect x="138" y="210" width="476" height="58" rx="14" fill="#F5F5F5"/>
  <rect x="138" y="288" width="228" height="58" rx="14" fill="#F5F5F5"/>
  <rect x="386" y="288" width="228" height="58" rx="14" fill="#F5F5F5"/>
  <rect x="138" y="366" width="476" height="58" rx="14" fill="#F5F5F5"/>
  <rect x="138" y="458" width="190" height="62" rx="14" fill="#FF8A00" stroke="#171717" stroke-width="4"/>
  <text x="180" y="499" font-family="Arial" font-size="24" font-weight="700" fill="#171717">PAY NOW</text>
  <rect x="710" y="120" width="380" height="460" rx="30" fill="#1E1E1E"/>
  <rect x="738" y="160" width="324" height="380" rx="22" fill="#FDF6ED"/>
  <text x="788" y="230" font-family="Arial" font-size="30" font-weight="800" fill="#171717">SUMMARY</text>
  <rect x="778" y="268" width="244" height="22" rx="10" fill="#EDEDED"/>
  <rect x="778" y="310" width="204" height="22" rx="10" fill="#EDEDED"/>
  <rect x="778" y="352" width="188" height="22" rx="10" fill="#EDEDED"/>
  <rect x="778" y="406" width="244" height="72" rx="14" fill="#FFE0BC" stroke="#171717" stroke-width="4"/>
  <text x="826" y="452" font-family="Arial" font-size="30" font-weight="800" fill="#171717">Rs 2,499</text>
</svg>
